General

Format                         : MPEG-4
Format profile                 : Base Media
Codec ID                       : isom
File size                      : 100 MiB
Duration                       : 6mn 35s
Overall bit rate mode          : Variable
Overall bit rate               : 2 125 Kbps
Encoded date                   : UTC 2012-12-28 04:20:18
Tagged date                    : UTC 2012-12-28 04:20:18

Video
ID                             : 1
Format                         : AVC
Format/Info                    : Advanced Video Codec
Format profile                 : High@L3.0
Format settings, CABAC         : Yes
Format settings, ReFrames      : 2 frames
Codec ID                       : avc1
Codec ID/Info                  : Advanced Video Coding
Duration                       : 6mn 35s
Bit rate                       : 1 943 Kbps
Maximum bit rate               : 6 347 Kbps
Width                          : 720 pixels
Height                         : 480 pixels
Display aspect ratio           : 16:9
Original display aspect ratio  : 16:9
Frame rate mode                : Constant
Frame rate                     : 24.000 fps
Standard                       : NTSC
Color space                    : YUV
Chroma subsampling             : 4:2:0
Bit depth                      : 8 bits
Scan type                      : Progressive
Bits/(Pixel*Frame)             : 0.234
Stream size                    : 91.5 MiB (91%)


Audio
ID                             : 2
Format                         : AAC
Format/Info                    : Advanced Audio Codec
Format profile                 : LC
Codec ID                       : 40
Duration                       : 6mn 35s
Bit rate mode                  : Variable
Bit rate                       : 179 Kbps
Maximum bit rate               : 239 Kbps
Channel(s)                     : 2 channels
Channel positions              : Front: L R
Sampling rate                  : 44.1 KHz
Compression mode               : Lossy
Stream size                    : 8.44 MiB (8%)